<svg width="30" height="30" viewBox="0 0 30 30" fill="none" xmlns="http://www.w3.org/2000/svg"><path fillRule="evenodd" clipRule="evenodd" d="M8.78564 6.58936C8.78564 4.72539 10.2967 3.21436 12.1606 3.21436H18.9106C20.7746 3.21436 22.2856 4.72539 22.2856 6.58936V7.9064C23.5965 8.36972 24.5356 9.61986 24.5356 11.0894V12.4064C25.8465 12.8697 26.7856 14.1199 26.7856 15.5894V22.3394C26.7856 24.2033 25.2746 25.7144 23.4106 25.7144H7.66064C5.79668 25.7144 4.28564 24.2033 4.28564 22.3394V15.5894C4.28564 14.1199 5.2248 12.8697 6.53564 12.4064V11.0894C6.53564 9.61986 7.4748 8.36972 8.78564 7.9064V6.58936ZM11.0356 7.71436H20.0356V6.58936C20.0356 5.96804 19.532 5.46436 18.9106 5.46436H12.1606C11.5393 5.46436 11.0356 5.96804 11.0356 6.58936V7.71436ZM8.78564 12.2144H22.2856V11.0894C22.2856 10.468 21.782 9.96436 21.1606 9.96436H9.91064C9.28932 9.96436 8.78564 10.468 8.78564 11.0894V12.2144ZM7.66064 14.4644C7.03932 14.4644 6.53564 14.968 6.53564 15.5894V22.3394C6.53564 22.9607 7.03932 23.4644 7.66064 23.4644H23.4106C24.032 23.4644 24.5356 22.9607 24.5356 22.3394V15.5894C24.5356 14.968 24.032 14.4644 23.4106 14.4644H7.66064Z" fill="#21304F"></path></svg>