<svg width="32" height="32" viewBox="0 0 32 32" fill="none" xmlns="http://www.w3.org/2000/svg"><path d="M21.7864 11.8206C21.7864 11.2747 22.2289 10.8322 22.7748 10.8322H31.0116C31.5575 10.8322 32 11.2747 32 11.8206V20.0574C32 20.6033 31.5575 21.0458 31.0116 21.0458H22.7748C22.2289 21.0458 21.7864 20.6033 21.7864 20.0574V11.8206Z" fill="#0085CA"></path><path d="M10.9138 22.6932C10.9138 22.1473 11.3563 21.7048 11.9022 21.7048H20.139C20.6849 21.7048 21.1274 22.1473 21.1274 22.6932V30.93C21.1274 31.4759 20.6849 31.9184 20.139 31.9184H11.9022C11.3563 31.9184 10.9138 31.4759 10.9138 30.93V22.6932Z" fill="#EC1C2E"></path><path d="M21.0862 5.45289C21.0862 2.44143 18.6439 0 15.6314 0C13.0403 0 10.8716 1.806 10.3153 4.22737C10.294 4.30718 10.2752 4.39005 10.2621 4.46681C10.1731 5.00106 10.0531 5.54142 9.96369 6.07611C9.787 7.13459 9.6103 8.19351 9.43361 9.25198C9.28265 10.1561 9.13083 11.0641 8.85117 11.9368C7.90401 14.8907 5.51668 17.2436 2.73975 18.6278C4.95693 18.9479 7.19287 18.7539 9.34417 18.1293C11.4876 17.507 14.0935 16.5863 15.9224 15.2108C17.507 14.0193 18.4969 12.9573 19.3223 11.6149C20.2595 10.0907 21.0212 7.94186 21.0718 5.84584C21.081 5.71587 21.0862 5.58503 21.0862 5.45289Z" fill="#FFCC00"></path><path d="M6.52798 13.5853C7.00352 12.8073 7.72121 11.7436 7.72644 10.7688C4.76104 10.9468 0.208452 11.317 0.0020915 15.1092C-0.0184137 15.4855 0.100255 17.1507 0.879452 17.2143C3.12848 17.3975 4.83477 15.9736 6.52798 13.5853Z" fill="#FFCC00"></path></svg>