<svg width="30" height="30" viewBox="0 0 30 30" fill="none" xmlns="http://www.w3.org/2000/svg"><path fillRule="evenodd" clipRule="evenodd" d="M10 2.5C10.6904 2.5 11.25 3.05964 11.25 3.75V5H18.75V3.75C18.75 3.05964 19.3096 2.5 20 2.5C20.6904 2.5 21.25 3.05964 21.25 3.75V5H23.75C25.8211 5 27.5 6.67893 27.5 8.75V23.75C27.5 25.8211 25.8211 27.5 23.75 27.5H6.25C4.17893 27.5 2.5 25.8211 2.5 23.75V8.75C2.5 6.67893 4.17893 5 6.25 5H8.75V3.75C8.75 3.05964 9.30964 2.5 10 2.5ZM8.75 7.5H6.25C5.55964 7.5 5 8.05964 5 8.75V23.75C5 24.4404 5.55964 25 6.25 25H23.75C24.4404 25 25 24.4404 25 23.75V8.75C25 8.05964 24.4404 7.5 23.75 7.5H21.25V8.75C21.25 9.44036 20.6904 10 20 10C19.3096 10 18.75 9.44036 18.75 8.75V7.5H11.25V8.75C11.25 9.44036 10.6904 10 10 10C9.30964 10 8.75 9.44036 8.75 8.75V7.5ZM7.5 13.75C7.5 13.0596 8.05964 12.5 8.75 12.5H21.25C21.9404 12.5 22.5 13.0596 22.5 13.75C22.5 14.4404 21.9404 15 21.25 15H8.75C8.05964 15 7.5 14.4404 7.5 13.75Z" fill="#21304F"></path></svg>