<svg width="30" height="30" viewBox="0 0 30 30" fill="none" xmlns="http://www.w3.org/2000/svg"><path fillRule="evenodd" clipRule="evenodd" d="M11.6911 5.10174C12.5332 1.63275 17.4668 1.63276 18.3089 5.10174C18.4535 5.69737 19.1359 5.98003 19.6594 5.66111C22.7078 3.80366 26.1963 7.2922 24.3389 10.3406C24.02 10.8641 24.3026 11.5465 24.8983 11.6911C28.3672 12.5332 28.3672 17.4668 24.8983 18.3089C24.3026 18.4535 24.02 19.1359 24.3389 19.6594C26.1963 22.7078 22.7078 26.1963 19.6594 24.3389C19.1359 24.02 18.4535 24.3026 18.3089 24.8983C17.4668 28.3672 12.5332 28.3672 11.6911 24.8983C11.5465 24.3026 10.8641 24.02 10.3406 24.3389C7.2922 26.1963 3.80366 22.7078 5.66111 19.6594C5.98003 19.1359 5.69737 18.4535 5.10174 18.3089C1.63276 17.4668 1.63275 12.5332 5.10174 11.6911C5.69737 11.5465 5.98003 10.8641 5.66111 10.3406C3.80366 7.2922 7.2922 3.80366 10.3406 5.6611C10.8641 5.98003 11.5465 5.69737 11.6911 5.10174ZM15.8795 5.69153C15.6557 4.76949 14.3443 4.76949 14.1205 5.69153C13.5765 7.93245 11.0091 8.99591 9.03982 7.79602C8.22956 7.30232 7.30232 8.22956 7.79602 9.03982C8.99591 11.0091 7.93245 13.5765 5.69153 14.1205C4.76949 14.3443 4.76949 15.6557 5.69153 15.8795C7.93245 16.4235 8.99591 18.9909 7.79602 20.9602C7.30232 21.7704 8.22956 22.6977 9.03982 22.204C11.0091 21.0041 13.5765 22.0675 14.1205 24.3085C14.3443 25.2305 15.6557 25.2305 15.8795 24.3085C16.4235 22.0675 18.9909 21.0041 20.9602 22.204C21.7704 22.6977 22.6977 21.7704 22.204 20.9602C21.0041 18.9909 22.0675 16.4235 24.3085 15.8795C25.2305 15.6557 25.2305 14.3443 24.3085 14.1205C22.0675 13.5765 21.0041 11.0091 22.204 9.03982C22.6977 8.22956 21.7704 7.30232 20.9602 7.79602C18.9909 8.99591 16.4235 7.93246 15.8795 5.69153ZM15 12.5C13.6193 12.5 12.5 13.6193 12.5 15C12.5 16.3807 13.6193 17.5 15 17.5C16.3807 17.5 17.5 16.3807 17.5 15C17.5 13.6193 16.3807 12.5 15 12.5ZM10 15C10 12.2386 12.2386 10 15 10C17.7614 10 20 12.2386 20 15C20 17.7614 17.7614 20 15 20C12.2386 20 10 17.7614 10 15Z" fill="#21304F"></path></svg>